<svg width="131" height="144" viewBox="0 0 131 144" fill="none" xmlns="http://www.w3.org/2000/svg">
<path fill-rule="evenodd" clip-rule="evenodd" d="M100.015 46.7133C104.725 36.3842 109.549 24.776 113.645 17.3177L111.483 16.2263C107.841 24.1276 101.645 34.3544 96.0032 44.6883C87.018 61.1458 72.878 86.9833 47.2397 138.913C46.7539 139.897 47.1435 141.106 48.123 141.6L50.7339 142.918C51.7134 143.413 52.9179 143.007 53.421 142.032C80.3336 89.8724 92.2395 63.7637 100.015 46.7133Z" fill="#EECB70"/>
<path fill-rule="evenodd" clip-rule="evenodd" d="M100.015 46.7133C104.725 36.3842 109.549 24.776 113.645 17.3177L111.483 16.2263C107.841 24.1276 101.645 34.3544 96.0032 44.6883C87.018 61.1458 72.878 86.9833 47.2397 138.913C46.7539 139.897 47.1435 141.106 48.123 141.6L50.7339 142.918C51.7134 143.413 52.9179 143.007 53.421 142.032C80.3336 89.8724 92.2395 63.7637 100.015 46.7133Z" fill="#EECB70"/>
<ellipse cx="113.11" cy="15.6909" rx="2.42198" ry="3.63297" transform="rotate(26.7845 113.11 15.6909)" fill="#EECB70"/>
<ellipse cx="113.11" cy="15.6909" rx="2.42198" ry="3.63297" transform="rotate(26.7845 113.11 15.6909)" fill="#EECB70"/>
<path fill-rule="evenodd" clip-rule="evenodd" d="M90.4396 75.2652C99.2937 68.1603 108.825 59.9643 115.839 55.1468L114.399 53.1993C107.592 58.6168 97.4567 64.9618 87.7683 71.6517C72.3387 82.306 48.0851 99.0174 1.82225 133.857C0.94573 134.517 0.749619 135.772 1.40189 136.654L3.14047 139.006C3.79273 139.888 5.05082 140.068 5.93888 139.424C53.4433 104.952 75.8238 86.9934 90.4396 75.2652Z" fill="#EECB70"/>
<path fill-rule="evenodd" clip-rule="evenodd" d="M90.4396 75.2652C99.2937 68.1603 108.825 59.9643 115.839 55.1468L114.399 53.1993C107.592 58.6168 97.4567 64.9618 87.7683 71.6517C72.3387 82.306 48.0851 99.0174 1.82225 133.857C0.94573 134.517 0.749619 135.772 1.40189 136.654L3.14047 139.006C3.79273 139.888 5.05082 140.068 5.93888 139.424C53.4433 104.952 75.8238 86.9934 90.4396 75.2652Z" fill="#EECB70"/>
<ellipse cx="116.093" cy="53.4532" rx="2.42198" ry="3.63297" transform="rotate(53.5261 116.093 53.4532)" fill="#EECB70"/>
<ellipse cx="116.093" cy="53.4532" rx="2.42198" ry="3.63297" transform="rotate(53.5261 116.093 53.4532)" fill="#EECB70"/>
</svg>
