<svg width="131" height="100" viewBox="0 0 131 100" fill="none" xmlns="http://www.w3.org/2000/svg">
<path fill-rule="evenodd" clip-rule="evenodd" d="M90.4396 34.2652C99.2937 27.1603 108.825 18.9643 115.839 14.1468L114.399 12.1993C107.592 17.6168 97.4567 23.9618 87.7683 30.6517C72.3387 41.306 48.0851 58.0174 1.82225 92.8566C0.94573 93.5167 0.749619 94.7717 1.40189 95.6541L3.14047 98.0059C3.79273 98.8882 5.05082 99.0682 5.93888 98.4238C53.4433 63.9524 75.8238 45.9934 90.4396 34.2652Z" fill="#EECB70"/>
<path fill-rule="evenodd" clip-rule="evenodd" d="M90.4396 34.2652C99.2937 27.1603 108.825 18.9643 115.839 14.1468L114.399 12.1993C107.592 17.6168 97.4567 23.9618 87.7683 30.6517C72.3387 41.306 48.0851 58.0174 1.82225 92.8566C0.94573 93.5167 0.749619 94.7717 1.40189 95.6541L3.14047 98.0059C3.79273 98.8882 5.05082 99.0682 5.93888 98.4238C53.4433 63.9524 75.8238 45.9934 90.4396 34.2652Z" fill="#EECB70"/>
<ellipse cx="116.093" cy="12.4532" rx="2.42198" ry="3.63297" transform="rotate(53.5261 116.093 12.4532)" fill="#EECB70"/>
<ellipse cx="116.093" cy="12.4532" rx="2.42198" ry="3.63297" transform="rotate(53.5261 116.093 12.4532)" fill="#EECB70"/>
</svg>
